<?xml version="1.0" standalone="no"?><!DOCTYPE svg PUBLIC "-//W3C//DTD SVG 1.1//EN" "http://www.w3.org/Graphics/SVG/1.1/DTD/svg11.dtd"><svg t="1682128754284" class="icon" viewBox="0 0 1383 1024" version="1.1" xmlns="http://www.w3.org/2000/svg" p-id="23517" width="86.4375" height="64" xmlns:xlink="http://www.w3.org/1999/xlink"><path d="M346.796337 935.358638c50.263149 54.871149 121.97583 86.560681 196.237617 86.560681h612.395575c124.797277 0 226.445617-101.833532 226.445617-226.870468V227.328c0-125.036936-101.637447-226.870468-226.445617-226.870468H543.033954c-74.545021 0-145.974468 31.406298-196.237617 86.560681L31.14289 431.278298a117.770894 117.770894 0 0 0 0 159.537021l315.653447 344.543319zM82.255741 478.229787l315.653447-344.532425a197.544851 197.544851 0 0 1 145.408-63.934639h612.406468c86.680511 0 157.271149 70.721362 157.271149 157.565277v567.448511c0 86.833021-70.590638 157.554383-157.271149 157.554383H543.033954c-55.067234 0-108.140936-23.203404-145.408-63.934639L82.244848 543.86383a48.138894 48.138894 0 0 1 0-65.634043z m554.234553 216.96817a34.358468 34.358468 0 0 0 24.565107 10.185532c9.041702 0 17.789277-3.398809 24.565106-10.185532l134.971915-135.211574 134.950128 135.211574a34.358468 34.358468 0 0 0 24.565106 10.185532c9.041702 0 17.789277-3.398809 24.565107-10.185532a34.532766 34.532766 0 0 0 0-48.934127L869.417614 511.041362 1004.400422 375.829787a34.532766 34.532766 0 0 0 0-48.934127 34.380255 34.380255 0 0 0-48.857872 0L820.570635 462.107234 685.609614 326.89566a34.380255 34.380255 0 0 0-48.846979 0 34.532766 34.532766 0 0 0 0 48.934127l134.971915 135.211575-134.971915 135.222468a34.794213 34.794213 0 0 0-0.283234 48.934127z" fill="#8a8a8a" p-id="23518"></path></svg>